<svg xmlns="http://www.w3.org/2000/svg" viewBox="0 0 32 32" width="32" height="32">
  <defs>
    <linearGradient id="g" x1="0" y1="0" x2="1" y2="1">
      <stop offset="0%" stop-color="#0A84FF"/>
      <stop offset="55%" stop-color="#5E5CE6"/>
      <stop offset="100%" stop-color="#BF5AF2"/>
    </linearGradient>
    <radialGradient id="c" cx="50%" cy="40%" r="55%">
      <stop offset="0%" stop-color="#FFFFFF" stop-opacity="0.7"/>
      <stop offset="100%" stop-color="#FFFFFF" stop-opacity="0"/>
    </radialGradient>
  </defs>
  <path d="M 17 2 C 17 12, 17 12, 30 16 C 17 20, 17 20, 17 30 C 17 20, 17 20, 4 16 C 17 12, 17 12, 17 2 Z" fill="url(#g)"/>
  <path d="M 17 2 C 17 12, 17 12, 30 16 C 17 20, 17 20, 17 30 C 17 20, 17 20, 4 16 C 17 12, 17 12, 17 2 Z" fill="url(#c)"/>
  <path d="M 27 5 C 27 8, 27 8, 30 9 C 27 10, 27 10, 27 13 C 27 10, 27 10, 24 9 C 27 8, 27 8, 27 5 Z" fill="url(#g)" opacity="0.85"/>
</svg>
