<?xml version="1.0" encoding="UTF-8"?>
<svg id="Layer_2" data-name="Layer 2" xmlns="http://www.w3.org/2000/svg" viewBox="0 0 1269.35 120">
  <defs>
    <style>
      .cls-1 {
        fill: gray;
      }

      .cls-2 {
        fill: #fff;
      }
    </style>
  </defs>
  <g id="Layer_1-2" data-name="Layer 1">
    <g>
      <path class="cls-2" d="M125.31,0c2.57,0,3.77,1.2,3.77,3.77v16.8c0,2.57-1.2,3.94-3.77,3.94H49.03c-17.66,0-22.8,5.14-22.8,23.31v24.34c0,18.17,5.14,23.49,22.8,23.49h76.28c2.57,0,3.77,1.2,3.77,3.77v16.8c0,2.57-1.2,3.77-3.77,3.77H48C13.37,120,0,107.66,0,74.74v-29.49C0,12.34,13.37,0,48,0h77.31Z"/>
      <path class="cls-2" d="M247.02,0C281.82,0,295.02,12.34,295.02,45.26v29.49c0,32.91-13.2,45.26-48,45.26h-52.97c-34.63,0-48-12.34-48-45.26v-29.49C146.05,12.34,159.42,0,194.05,0h52.97ZM172.28,72.86c0,18,5.14,23.31,22.8,23.31h50.91c17.66,0,22.8-5.31,22.8-23.31v-25.71c0-18-5.14-23.31-22.8-23.31h-50.91c-17.66,0-22.8,5.31-22.8,23.31v25.71Z"/>
      <path class="cls-2" d="M483.24,0h-18.34c-10.11,0-13.54,2.23-18.17,13.03l-35.66,82.28c-.52,1.2-1.2,1.54-2.41,1.54h-2.05c-1.2,0-1.89-.34-2.4-1.54l-35.66-82.28c-4.63-10.8-8.06-13.03-18.34-13.03h-18.69c-12.17,0-15.25,4.8-15.25,17.83v98.4c0,2.58,1.37,3.77,3.94,3.77h17.48c2.58,0,3.77-1.2,3.77-3.77V26.74c0-1.2.34-1.71,1.37-1.71h1.54c1.21,0,1.89.34,2.23,1.37l34.63,76.81c5.65,12.33,10.46,16.8,21.94,16.8h8.24c11.48,0,16.28-4.46,21.94-16.8l34.63-76.81c.34-1.02,1.02-1.37,2.22-1.37h1.54c1.03,0,1.38.51,1.38,1.71v45.04c7.54-1.88,16.06-4,25.2-6.29V17.83c0-13.03-3.09-17.83-15.09-17.83ZM473.13,93.48v22.75c0,2.58,1.2,3.77,3.77,3.77h17.48c2.56,0,3.94-1.2,3.94-3.77v-24.82c-9.23.76-17.75,1.46-25.2,2.07Z"/>
      <path class="cls-2" d="M643.01,96.17h-74.92c-11.64,0-17.8-2.26-20.65-8.84-9.02.75-18.01,1.5-26.7,2.22,3.9,21.88,18.01,30.45,46.84,30.45h75.43c2.58,0,3.94-1.2,3.94-3.77v-16.28c0-2.58-1.37-3.77-3.94-3.77ZM643.01,0h-75.43c-34.62,0-48,12.34-48,45.26v14.95c8.41-2.1,17.07-4.25,25.72-6.4v-6.66c0-18.01,4.96-23.31,22.79-23.31h74.92c2.58,0,3.94-1.21,3.94-3.77V3.77c0-2.58-1.37-3.77-3.94-3.77Z"/>
      <path class="cls-2" d="M802.33,0c2.57,0,3.94,1.2,3.94,3.77v16.8c0,2.57-1.37,3.94-3.94,3.94h-53.83v91.71c0,2.57-1.2,3.77-3.77,3.77h-18.69c-2.57,0-3.77-1.2-3.77-3.77V24.51h-53.83c-2.57,0-3.94-1.37-3.94-3.94V3.77C664.5,1.2,665.87,0,668.44,0h133.89Z"/>
      <g>
        <path class="cls-1" d="M849.98,0c2.57,0,3.77,1.2,3.77,3.77v68.4c0,18.17,5.14,23.49,22.8,23.49h69.43c2.57,0,3.77,1.2,3.77,3.77v16.8c0,2.57-1.2,3.77-3.77,3.77h-70.46c-34.63,0-48-12.34-48-45.26V3.77C827.52,1.2,828.89,0,831.47,0h18.51Z"/>
        <path class="cls-1" d="M1044.83,0c8.74,0,14.06,2.74,19.71,13.03l56.74,103.03c1.2,2.23.69,3.94-2.06,3.94h-21.77c-2.23,0-3.09-.51-3.94-2.23l-12.17-22.11h-80.57l-11.83,22.11c-.86,1.71-1.89,2.23-3.94,2.23h-22.29c-2.91,0-3.43-1.71-2.23-3.94l56.23-103.03C1022.38,2.74,1027.52,0,1034.72,0h10.11ZM1011.57,75.77h58.97l-27.26-50.23c-.52-.86-1.03-1.2-1.89-1.2h-1.03c-.86,0-1.37.34-1.89,1.2l-26.91,50.23Z"/>
        <path class="cls-1" d="M1235.92,0c23.66,0,32.57,9.26,32.57,28.29v8.23c0,9.77-3.77,16.97-10.97,21.77,8.06,4.63,11.83,12,11.83,22.11v9.94c0,18.17-7.54,29.66-30.34,29.66h-101.83c-3.43,0-5.14-1.71-5.14-5.14V5.14C1132.03,1.71,1133.75,0,1137.18,0h98.74ZM1158.26,49.89h70.29c11.31,0,14.74-3.43,14.74-10.11v-5.83c0-7.03-3.77-10.29-12.69-10.29h-70.11c-1.54,0-2.23.69-2.23,2.23v24ZM1158.26,68.57v25.54c0,1.54.69,2.23,2.23,2.23h70.29c9.09,0,12.69-3.26,12.69-10.46v-6.51c0-7.03-3.6-10.8-14.91-10.8h-70.29Z"/>
      </g>
      <path class="cls-2" d="M669.91,50.34c-1.49-9.02-10.15-15.11-19.35-13.6-9.2,1.52-205.52,50.65-205.52,50.65,0,0,201.71-16.46,210.91-17.97,9.2-1.52,15.45-10.06,13.96-19.08Z"/>
    </g>
  </g>
</svg>